<svg xmlns="http://www.w3.org/2000/svg" viewBox="0 0 128 128" fill="none">
  <rect width="128" height="128" rx="26" fill="#6FBCF0"/>
  <path d="M64 24c-5.2 0-9.8 2.6-12.6 6.5L34.8 55.3c-3.2 4.5-3.2 10.5 0 15l16.6 24.8c2.8 3.9 7.4 6.5 12.6 6.5s9.8-2.6 12.6-6.5l16.6-24.8c3.2-4.5 3.2-10.5 0-15L76.6 30.5C73.8 26.6 69.2 24 64 24z" fill="#FFFFFE"/>
  <path d="M64 48c-3 0-5.6 1.5-7.2 3.7l-9.5 14.2c-1.8 2.6-1.8 6 0 8.6l9.5 14.2c1.6 2.2 4.2 3.7 7.2 3.7s5.6-1.5 7.2-3.7l9.5-14.2c1.8-2.6 1.8-6 0-8.6L71.2 51.7C69.6 49.5 67 48 64 48z" fill="#6FBCF0"/>
</svg>
